<svg height="184" viewBox="0 0 391 184" width="391" xmlns="http://www.w3.org/2000/svg"><g fill="none" fill-rule="nonzero"><g fill="#4d4e56" transform="translate(0 65.933333)"><path d="m27.8889554 38.6289016v10.114996c0 8.3327661-4.3142369 12.58192-13.4608201 12.58192h-.1731141c-9.14532425 0-13.45956121-4.1651428-13.45956121-12.58192v-35.7039033c0-7.98915341 4.31423696-12.58191997 13.45956121-12.58191997h.1731141c9.1465832 0 13.4608201 4.59276656 13.4608201 12.58191997v8.6713924c.0342898.3701221-.1002233.7361045-.3670945.9987884s-.6384712.3948735-1.014119.3607535h-.6899645c-.3755258.0340702-.7469772-.0981824-1.0136376-.3608983s-.4008987-.6286727-.366317-.9986436v-7.141297c0-7.56398498-2.5892873-10.88127133-10.0962445-10.88127133-7.50695734 0-10.09498567 3.31728635-10.09498567 10.88127133v32.6437885c0 7.5664655 2.58805402 10.8812713 10.09498567 10.8812713 7.5069316 0 10.0962445-3.3148058 10.0962445-10.8812713v-8.5849766c-.0345817-.369971.0996566-.7359278.366317-.9986436.2666604-.2627159.6381118-.3949685 1.0136376-.3608983h.6899645c.3756478-.0341201.7472478.0980695 1.014119.3607534s.4013843.6286664.3670945.9987885z"/><path d="m40.7941557 60.6461605h-.6911206c-.3754725.0338565-.7467934-.0984653-1.0134022-.3611304-.2666087-.262665-.4009173-.6284932-.3665525-.9984115v-56.78676345c-.0343648-.36991833.0999438-.73574653.3665525-.99841156.2666088-.26266503.6379297-.39498689 1.0134022-.36113036h.6911206c.3754724-.03385653.7467933.09846533 1.0134021.36113036s.4009174.62849323.3665525.99841156v56.78676345c.0343649.3699183-.0999437.7357465-.3665525.9984115-.2666088.2626651-.6379297.3949869-1.0134021.3611304z"/><path d="m81.1062707 60.6461605h-.9484025c-.721588.052932-1.3771322-.4134639-1.5530687-1.1049521l-10.0962446-24.993236h-11.6480544v24.7386968c.0342898.3701221-.1002234.7361046-.3670945.9987885-.2668712.2626839-.6384712.3948735-1.014119.3607534h-.6899645c-.3755258.0340702-.7469773-.0981824-1.0136377-.3608983-.2666604-.2627158-.4008986-.6286727-.3663169-.9986436v-56.78681405c-.0345817-.36997094.0996565-.73592774.3663169-.99864362.2666604-.26271589.6381119-.39496846 1.0136377-.3608983h12.511133c9.1465832 0 13.4608201 4.41973257 13.4608201 12.57943937v8.2461479c0 6.5455498-2.7611681 10.7106926-8.6284739 12.0727151l10.0962446 24.993236c.344995.9345253-.0865571 1.6143089-1.1227756 1.6143089zm-3.7961277-40.2102794v-5.1860078c0-7.65052727-2.7611682-10.88127131-10.3546569-10.88127131h-10.0949856v26.94855041h10.0949856c7.5934887 0 10.3546569-3.2307693 10.3546569-10.8812713z"/><path d="m118.440272 38.6289016v10.114996c0 8.3327661-4.314236 12.58192-13.46082 12.58192h-.173139c-9.1453247 0-13.4595617-4.1651428-13.4595617-12.58192v-35.7039033c0-7.98915341 4.314237-12.58191997 13.4595617-12.58191997h.173114c9.146583 0 13.46082 4.59276656 13.46082 12.58191997v8.6713924c.03429.3701221-.100224.7361045-.367095.9987884s-.638471.3948735-1.014119.3607535h-.689939c-.375525.0340702-.746977-.0981824-1.013637-.3608983-.266661-.2627159-.400899-.6286727-.366317-.9986436v-7.141297c0-7.56398498-2.589313-10.88127133-10.096245-10.88127133-7.5069313 0-10.0949853 3.31728635-10.0949853 10.88127133v32.6437885c0 7.5664655 2.5880283 10.8812713 10.0949853 10.8812713 7.506958 0 10.096245-3.3148058 10.096245-10.8812713v-8.5849766c-.034582-.369971.099656-.7359278.366317-.9986436.26666-.2627159.638112-.3949685 1.013637-.3608983h.689965c.375648-.0341201.747248.0980695 1.014119.3607534s.401384.6286664.367094.9987885z"/><path d="m151.105022 58.7748571v.5116855c.03429.3701221-.100223.7361046-.367094.9987885s-.638471.3948735-1.014119.3607535h-19.241569c-.375526.0340701-.746977-.0981824-1.013638-.3608983-.26666-.2627159-.400898-.6286727-.366317-.9986437v-56.78668745c-.034581-.36997094.099657-.73592774.366317-.99864362.266661-.26271589.638112-.39496846 1.013638-.3608983h.68999c.375646-.03412129.747244.09806886 1.014112.36075395.266867.26268509.401374.62866841.367076.99878797v54.91553605h17.170391c.375526-.0336903.746852.0986279 1.013617.3611927s.401429.6282691.367596.9982732z"/><path d="m182.024731 60.6461605h-20.536251c-.375526.0340702-.746977-.0981824-1.013638-.3608983-.26666-.2627159-.400898-.6286727-.366317-.9986436v-56.78676345c-.034581-.36997094.099657-.73592774.366317-.99864362.266661-.26271589.638112-.39496846 1.013638-.3608983h20.277839c.375526-.03407016.746977.09818241 1.013637.3608983.266661.26271588.400899.62867268.366317.99864362v.50920491c.034582.36997094-.099656.73592775-.366317.99864363-.26666.26271589-.638111.39496846-1.013637.3608983h-18.20661v24.48408171h15.531999c.375472-.0338565.746793.0984653 1.013402.3611303.266609.2626651.400917.6284933.366552.9984116v.5091543c.034467.3701591-.099714.7362806-.366258.9993611s-.637917.3959436-1.013696.3626614h-15.531999v25.3319888h18.464996c.375542-.0336937.746881.0986343 1.013649.3612168.266769.2625825.401422.6283083.367565.9983251v.5116855c.034288.3701173-.100221.736095-.367087.9987779-.266865.2626828-.638457.394876-1.014101.360764z"/></g><path d="m317.394203 10.2488388c10.935245 2.4731595 21.421421 6.6367243 31.083439 12.3417636 9.858493 5.793738 18.571667 13.3581052 25.704833 22.3157239 7.25783 9.1994787 12.384767 19.9055739 15.008826 31.3415029 2.559205 11.5531007 2.400586 23.5460576-.463266 35.0268698-2.8808 11.346355-8.251792 21.902656-15.720038 30.89661-7.327208 8.795047-16.224049 16.141052-26.234198 21.661234-20.017489 11.115787-43.234815 14.979636-65.75435 10.9429-11.3731-2.046536-22.268144-6.19774-32.129888-12.242058-9.957462-6.16514-18.603195-14.244975-25.440355-23.775182-6.941365-9.600636-11.877781-20.510967-14.512626-32.075407-5.269028-23.617969.341473-48.3622112 15.274023-67.3637052 7.293334-9.2199941 16.539737-16.6943503 27.068263-21.8807067 10.252011-5.0880173 21.349429-8.23788128 32.737456-9.29211969l4.216592-.27107143c1.395714-.14771257 2.79858-.21675635 4.201993-.2077464 2.807044.08205984 5.610896-.02098142 8.396517.21550164 2.779132.33766308 5.572915.45425016 8.336237.83167175zm-.223174 1.0094993-8.16397-1.30375894c-2.736799-.27169184-5.491906-.40784798-8.234808-.54028159-2.746687-.0471777-5.493683.24361788-8.227289.34640064-2.735383.14295489-5.429051.77234419-8.122127 1.17719349-10.629254 2.1380763-20.737539 6.3485187-29.752377 12.3928707-17.722094 11.5580625-30.256124 29.5984645-34.938452 50.2873947-4.398191 20.6209669-.184627 42.1505059 11.658099 59.5679849 12.166583 17.682132 30.184728 30.460121 50.851278 36.062375 10.494578 2.789173 21.421894 3.548554 32.199181 2.237645 10.83508-1.365021 21.273307-4.958754 30.662429-10.556637 9.305933-5.592417 17.278681-13.163399 23.357706-22.180654 5.91852-8.862267 9.967596-18.846885 11.897959-29.339178 3.822233-20.9813147-.298437-42.6393377-11.554404-60.7293317-5.633467-9.3120615-13.03294-17.423396-21.77875-23.873958-8.916594-6.530728-19.080223-11.143018-29.854475-13.5480652z" fill="#fdaf3f"/><path d="m379.091723 81.3342811c1.530571 10.8138427 1.565937 21.7908709.105078 32.6145959-1.456292 11.037987-4.814992 21.731397-9.923165 31.593317-5.285917 10.100012-12.772133 18.849736-21.891751 25.586594-9.289023 6.755086-20.110632 11.028639-31.463512 12.425229-11.230701 1.282945-22.601135-.211982-33.135879-4.356537-10.261949-4.055396-19.667736-10.051707-27.715154-17.66877-16.063119-15.202209-26.926444-35.190249-31.01462-57.065539-2.076061-11.0452232-2.273647-22.3683759-.584234-33.4809698 1.755888-11.259645 5.605008-22.0798698 11.343276-31.8869747 5.77739-9.9712663 13.525694-18.6273152 22.759706-25.4260998 19.019183-13.93857825 43.608919-17.46795111 65.704418-9.43057682 10.656925 3.88794126 20.300251 10.18076132 28.199448 18.40174782 7.704805 7.9637161 13.967441 17.2366088 18.502134 27.3955398 2.250517 4.9757836 4.142073 10.1101251 5.659816 15.362708.618255 2.656452 1.478925 5.2424273 2.029497 7.9051945zm-1.011503.1510216-1.617974-7.8990347c-.639905-2.6041444-1.469953-5.1632801-2.267694-7.7189476-5.278331-15.0832427-14.715545-28.3185381-27.193722-38.1380498-16.197147-12.6653365-36.523144-19.34421541-56.096873-16.0988441-19.862555 3.3356234-37.328678 15.209363-47.897808 32.5616669-10.80051 17.784244-15.515327 38.6755919-13.415689 59.4448986 1.100732 10.539032 4.016654 20.801258 8.615494 30.321164 4.654429 9.549784 11.134858 18.068911 19.065511 25.06339 7.885118 6.91271 17.198374 11.950522 27.256703 14.743946 9.831944 2.686936 20.132099 3.118576 30.149681 1.263457 9.86954-1.809908 19.251209-5.706971 27.532653-11.436821 26.540507-18.119241 40.482533-50.033101 35.869539-82.1068253z" fill="#e2e8f1"/><path d="m227.76386 51.7932968c-5.407561 9.4359173-8.597231 19.9982391-9.323438 30.8737713-.663173 10.69041.882467 21.4032379 4.538884 31.4589969 3.506908 9.845537 8.656555 19.013335 15.226248 27.106939 6.489575 8.078376 14.273968 15.003007 23.030202 20.486589 8.852443 5.575838 18.623854 9.504834 28.850453 11.600507 10.413608 2.103998 21.149589 1.971171 31.50895-.38983 10.413734-2.407689 20.182351-7.076786 28.625795-13.682247 8.340366-6.600657 15.191791-14.918365 20.098215-24.399461 9.525781-18.780905 11.418838-40.5699947 5.276896-60.7370781-6.215005-19.811131-19.538862-36.5652557-37.359461-46.9777675-17.927097-10.476431-38.945727-14.2243566-59.345077-10.5820855-10.447055 1.82304-20.405098 5.8155677-29.243386 11.7246964-2.137745 1.5990331-4.321162 3.1735447-6.399904 4.8793736-1.936308 1.8604235-3.928896 3.6823798-5.841213 5.5900838-1.753648 2.0508932-3.464964 4.150985-5.155371 6.263571zm-.889821-.518426c11.055934-19.6786017 29.044648-34.4387822 50.390605-41.34672813 10.922115-3.49819325 22.459941-4.59557618 33.837421-3.21833672 23.214859 2.80500177 44.325474 14.94563725 58.549166 33.67140535 7.011898 9.2554884 12.184023 19.7919559 15.23154 31.0291436 6.286843 22.4757657 2.760418 46.5911901-9.691686 66.2765121-12.137828 19.112472-31.003047 32.872202-52.794391 38.506661-10.790494 2.898553-22.004933 3.842724-33.122219 2.788639-11.307929-1.069863-22.292341-4.397228-32.314749-9.788686-10.07727-5.524859-18.901399-13.110659-25.908347-22.272514-6.923125-9.168635-11.820129-19.727154-14.361574-30.965247-4.730439-22.0871292-1.097358-45.1611097 10.184234-64.6808752z" fill="#ff8136"/><path d="m373.752357 96.1841498c-1.51018 21.7513192-10.382068 42.3359102-25.150084 58.3533262-7.56916 8.064351-16.82466 14.352489-27.103804 18.414181-10.356053 4.091676-21.533613 5.663018-32.613928 4.584867-10.987123-1.134523-21.577263-4.737062-30.981983-10.539406-9.229852-5.773619-17.254442-13.285406-23.629401-22.11939-12.769316-17.718842-19.099342-39.282304-17.937536-61.1048585 1.040184-22.1864818 10.262782-43.1968296 25.881565-58.9617643 7.87403-7.881441 17.272244-14.0685865 27.618303-18.18201551 21.136927-8.33046222 44.935635-6.36882903 64.428926 5.31062101 9.490268 5.7141271 17.625065 13.4292351 23.8394 22.6094828 12.06978 18.1608137 17.590277 39.9044099 15.648542 61.6349563zm-.639673-.0503667c1.621483-21.3133237-4.958178-42.4405404-18.389848-59.0495911-13.089336-16.1109363-32.158151-27.1291991-52.566216-28.46681073-20.64494-1.39499046-40.90827 6.06900143-55.733116 20.52927633-14.99953 14.6225879-24.407002 34.0499874-26.585787 54.9023935-1.087004 10.4908654-.286016 21.0919979 2.364888 31.2994589 2.685995 10.236785 7.35304 19.845402 13.73612 28.28023 12.75333 16.892842 32.257903 27.336547 53.364839 28.574152 20.820313 1.009741 41.173482-6.397164 56.491852-20.558458 15.850796-14.328128 25.62532-34.190663 27.317268-55.5106509z" fill="#24588d"/><path d="m362.606313 44.6931599c-5.757427-8.6544034-13.598199-15.7594023-22.818318-20.6770625-9.071676-4.7777134-19.061234-7.6075307-29.3151-8.3043086-10.022099-.7454764-20.10004.1333485-29.83554 2.6017435-9.710902 2.3991749-18.993663 6.2528076-27.526376 11.4272614-8.645146 5.2255347-16.358229 11.8270782-22.827903 19.5381529-6.558353 7.8491686-11.423562 16.9421218-14.296398 26.7196125-2.850406 9.8359597-3.460732 20.1744081-1.787066 30.2715359 1.71916 9.997772 5.753286 19.466907 11.78703 27.667205 12.116394 16.001211 30.346553 26.379472 50.423984 28.70591 19.84022 2.190324 39.827771-2.584983 56.468292-13.491069 16.805543-10.877477 29.504495-26.942448 36.12129-45.6957 3.378327-9.5856085 4.673511-19.7682067 3.800937-29.8825505-.267784-2.5375528-.749707-5.0585585-1.182104-7.5931401-.645836-2.4798684-1.400828-4.9410892-2.09847-7.4286421-.949393-2.3945199-2.036433-4.741294-3.052785-7.1188058zm.864509-.5647032c12.04893 17.9662383 16.406998 39.9220229 12.119805 61.0591323-2.142712 10.782951-6.532447 21.006576-12.889716 30.019948-12.89798 18.349283-32.328075 31.204596-54.401242 35.992876-10.936162 2.372417-22.224078 2.705183-33.283733.9812-11.057921-1.678819-21.629499-5.659746-31.015753-11.679567-9.27528-6.027856-17.051607-14.052327-22.746879-23.472736-5.626874-9.236489-9.216697-19.544443-10.534263-30.248482-1.319141-10.5776299-.633888-21.305713 2.020684-31.6351383 5.175994-21.1395759 17.804765-39.7614276 35.617816-52.5205256 9.097194-6.2908098 19.351775-10.7596688 30.185229-13.15446539 10.824006-2.32918615 22.019913-2.40378037 32.874674-.2190319 21.316306 4.39882269 40.019572 16.93037979 52.053378 34.87678989z" fill="#9ce8c6"/><g fill="#4d4e56"><path d="m283.857461 127.249315h-2.01387c-.756658.077407-1.515226-.131408-2.054567-.56557-.539342-.434163-.798743-1.0448-.702585-1.6539v-55.3264112c-.096366-.6091261.162974-1.2198543.702372-1.6540379.539399-.4341835 1.298095-.6429138 2.05478-.5653049h2.01387c.767011-.081011 1.538155.1232264 2.095577.5550136.557423.4317872.840594 1.0442374.769517 1.6643292v55.3264112c.070894.620065-.212329 1.232436-.7697 1.664208s-1.328403.636089-2.095394.555262z"/><path d="m321.98927 69.70193v1.1110005c.062253.6057974-.148624 1.2077171-.57399 1.6383807-.425367.4306636-1.019861.644144-1.618169.5810778h-8.60186v51.998837c.076454.609131-.129792 1.2198-.558612 1.653985s-1.031943.643011-1.633547.565601h-1.687012c-.598181.062431-1.192317-.151274-1.617536-.581813s-.636283-1.032108-.574623-1.637773v-51.9987099h-8.516037c-.601629.0776234-1.20486-.1311143-1.633728-.5653231s-.635061-1.0449752-.558431-1.6541354v-1.1110005c-.07662-.6091578.129577-1.2199178.558442-1.654124.428866-.4342062 1.03209-.6429473 1.633717-.5653345h23.189227c.598284-.0630596 1.192754.1504047 1.618115.5810383s.636256 1.0325165.574044 1.6382931z"/></g></g></svg>