<svg xmlns="http://www.w3.org/2000/svg" width="35.741" height="44.881" viewBox="0 0 35.741 44.881">
  <g id="Group_15" data-name="Group 15" transform="translate(1.118 1.5)">
    <path id="Stroke_1" data-name="Stroke 1" d="M22.083,4.569C20.222,1.879,15.979,0,11.042,0S1.861,1.879,0,4.569" transform="translate(5.711 15.991)" fill="none" stroke="#fff" stroke-linejoin="round" stroke-miterlimit="10" stroke-width="3"/>
    <path id="Stroke_3" data-name="Stroke 3" d="M6.853,12.945a6.67,6.67,0,0,0,6.854-6.471A6.67,6.67,0,0,0,6.853,0,6.67,6.67,0,0,0,0,6.474,6.669,6.669,0,0,0,6.853,12.945Z" transform="translate(10.28)" fill="none" stroke="#fff" stroke-linejoin="round" stroke-miterlimit="10" stroke-width="3"/>
    <path id="Stroke_5" data-name="Stroke 5" d="M25.89,0V5.33H0V0" transform="translate(4.188 36.55)" fill="none" stroke="#fff" stroke-linejoin="round" stroke-miterlimit="10" stroke-width="3"/>
    <path id="Stroke_7" data-name="Stroke 7" d="M0,7.615V0H25.89V7.489" transform="translate(4.188 20.56)" fill="none" stroke="#fff" stroke-linejoin="round" stroke-miterlimit="10" stroke-width="3"/>
    <path id="Stroke_9" data-name="Stroke 9" d="M2.313,9.109c2.284.178,4.548-.386,4.54-3.873C6.844,2,5.2,1.533,3.994,1.482,3.045,1.442,1.934.832,2.41,0c0,0-2.332.153-2.4,3.8C-.087,8.351,1.041,9.01,2.313,9.109Z" transform="translate(0.381 27.413)" fill="none" stroke="#fff" stroke-linejoin="round" stroke-miterlimit="10" stroke-width="3"/>
    <path id="Stroke_11" data-name="Stroke 11" d="M4.54,9.109C2.255,9.287-.009,8.722,0,5.236.009,2,1.649,1.533,2.86,1.482,3.809,1.442,4.919.832,4.443,0c0,0,2.332.153,2.4,3.8C6.941,8.351,5.812,9.01,4.54,9.109Z" transform="translate(26.271 27.413)" fill="none" stroke="#fff" stroke-linejoin="round" stroke-miterlimit="10" stroke-width="3"/>
    <path id="Stroke_13" data-name="Stroke 13" d="M7.615,0V5.251L6.463,4.711l-1.31.615L3.844,4.711l-1.322.62L1.2,4.711,0,5.273V0" transform="translate(12.564 20.56)" fill="none" stroke="#fff" stroke-linejoin="round" stroke-miterlimit="10" stroke-width="3"/>
  </g>
</svg>
