<svg xmlns="http://www.w3.org/2000/svg" width="25.711" height="37.443" viewBox="0 0 25.711 37.443">
  <path id="Fill_3" data-name="Fill 3" d="M12.871,37.443h-.012A12.838,12.838,0,0,1,.005,24.669L0,17.97a1.652,1.652,0,0,1,1.652-1.646H3.341L3.335,9.549A9.452,9.452,0,0,1,6.141,2.8,9.548,9.548,0,0,1,12.916,0h.008a9.578,9.578,0,0,1,9.59,9.532l.005,6.773h1.53A1.652,1.652,0,0,1,25.7,17.947l.006,6.7a12.666,12.666,0,0,1-3.76,9.04A12.8,12.8,0,0,1,12.871,37.443Zm-.015-15.92h0a2.959,2.959,0,0,0-1.517,5.511l0,3.076a.545.545,0,0,0,.546.542l1.954,0a.545.545,0,0,0,.545-.544l0-3.076a2.959,2.959,0,0,0-1.525-5.507ZM12.839,3.77A5.565,5.565,0,0,0,8.891,5.4,5.5,5.5,0,0,0,7.257,9.332l.007,6.987,2.607,0,8.567-.008-.007-6.987A5.579,5.579,0,0,0,12.844,3.77Z" transform="translate(0)" fill="#fff"/>
</svg>
