<svg xmlns="http://www.w3.org/2000/svg" width="58.154" height="50.66" viewBox="0 0 58.154 50.66">
  <g id="Group_534" data-name="Group 534" transform="translate(1 2)">
    <g id="Group_531" data-name="Group 531" transform="translate(0 22.044)">
      <path id="Path_673" data-name="Path 673" d="M-1088.765,237.336s3.125,20.449,21.744,20.378,21.96-20.378,21.96-20.378" transform="translate(1095.133 -233.099)" fill="none" stroke="#fff" stroke-width="4"/>
      <path id="Path_674" data-name="Path 674" d="M5.757,0l6.559,9.412L0,9.968Z" transform="translate(-1 2.601) rotate(-17)" fill="#fff"/>
    </g>
    <g id="Group_532" data-name="Group 532" transform="translate(6.081)">
      <path id="Path_673-2" data-name="Path 673" d="M-1045.061,257.714s-3.125-20.449-21.744-20.378-21.959,20.378-21.959,20.378" transform="translate(1088.765 -237.336)" fill="none" stroke="#fff" stroke-width="4"/>
      <path id="Path_674-2" data-name="Path 674" d="M5.757,0l6.559,9.412L0,9.968Z" transform="translate(51.072 22.015) rotate(163)" fill="#fff"/>
    </g>
    <g id="Group_526" data-name="Group 526" transform="translate(19.112 10.303)">
      <path id="Path_664" data-name="Path 664" d="M-3377.541-4876.888s-10.423,9.692-9.028,16.694,8.854,7.085,8.854,7.085v2.584h.245v-2.584s7.895-.561,8.749-7.36S-3377.541-4876.888-3377.541-4876.888Z" transform="translate(3386.697 4876.888)" fill="none" stroke="#fbfbfb" stroke-width="3"/>
      <path id="Path_665" data-name="Path 665" d="M-3477.838-4852.928v24.412" transform="translate(3486.853 4853.658)" fill="none" stroke="#fbfbfb" stroke-width="3"/>
      <path id="Path_666" data-name="Path 666" d="M-3477.838-4829.8l8.845-7.132" transform="translate(3486.853 4849.821)" fill="none" stroke="#fbfbfb" stroke-width="3"/>
      <path id="Path_669" data-name="Path 669" d="M-3468.992-4829.8l-8.845-7.132" transform="translate(3478.491 4849.821)" fill="none" stroke="#fbfbfb" stroke-width="3"/>
      <path id="Path_667" data-name="Path 667" d="M-3477.838-4829.206l6.533-5.249" transform="translate(3486.853 4842.386)" fill="none" stroke="#fbfbfb" stroke-width="3"/>
      <path id="Path_668" data-name="Path 668" d="M-3471.3-4829.206l-6.533-5.249" transform="translate(3480.803 4842.386)" fill="none" stroke="#fbfbfb" stroke-width="3"/>
    </g>
  </g>
</svg>
